<svg width="1824" height="144" viewBox="0 0 1824 144" fill="none" xmlns="http://www.w3.org/2000/svg">
<path d="M1824 83.1782H1810.94V60.6912L1813.66 50.7172L1811.49 49.8104L1807.5 57.427L1753.28 111.65L1744.03 102.401L1798.25 48.1783L1805.87 44.1887L1804.96 42.0125L1794.98 44.7327H1772.5V31.6758H1811.67L1824 44.0073V83.1782Z" fill="black"/>
<path d="M1641.53 34.1851H1669.76V44.5347H1671.64C1673.62 40.2485 1676.45 37.1123 1680.11 35.126C1683.76 33.0352 1687.95 31.9897 1692.65 31.9897C1700.49 31.9897 1706.82 34.551 1711.62 39.6735C1716.43 44.796 1718.99 52.2707 1719.31 62.0975L1706.45 63.9793C1706.45 56.766 1704.73 51.5912 1701.28 48.455C1697.83 45.2142 1693.59 43.5938 1688.57 43.5938C1685.33 43.5938 1682.51 44.221 1680.11 45.4755C1677.81 46.73 1675.87 48.4549 1674.3 50.6503C1672.74 52.8457 1671.59 55.4069 1670.85 58.3341C1670.12 61.2612 1669.76 64.3974 1669.76 67.7428V100.673H1689.51V111.964H1639.65V100.673H1657.52V45.4755H1641.53V34.1851Z" fill="black"/>
<path d="M1606.36 98.7914H1604.47C1601.97 104.018 1598.46 107.886 1593.97 110.395C1589.58 112.904 1584.93 114.159 1580.01 114.159C1574.89 114.159 1570.13 113.323 1565.74 111.65C1561.35 109.873 1557.48 107.312 1554.14 103.966C1550.9 100.516 1548.34 96.3347 1546.45 91.4213C1544.57 86.5079 1543.63 80.8104 1543.63 74.3288V71.8199C1543.63 65.4429 1544.57 59.7976 1546.45 54.8842C1548.34 49.9708 1550.9 45.8414 1554.14 42.4961C1557.48 39.0463 1561.35 36.4327 1565.74 34.6555C1570.13 32.8783 1574.78 31.9897 1579.7 31.9897C1585.03 31.9897 1589.84 33.192 1594.13 35.5964C1598.52 37.8963 1601.97 41.503 1604.47 46.4164H1606.36V34.1851H1618.59V95.9688C1618.59 99.105 1620 100.673 1622.82 100.673H1626.74V111.964H1618.43C1614.88 111.964 1611.95 110.814 1609.65 108.514C1607.45 106.214 1606.36 103.287 1606.36 99.7323V98.7914ZM1581.27 102.555C1584.93 102.555 1588.27 101.875 1591.3 100.516C1594.44 99.1573 1597.1 97.2233 1599.3 94.7143C1601.5 92.2053 1603.22 89.2259 1604.47 85.7761C1605.73 82.2217 1606.36 78.3014 1606.36 74.0152V72.1335C1606.36 67.9518 1605.73 64.1361 1604.47 60.6862C1603.22 57.1318 1601.44 54.1002 1599.14 51.5912C1596.95 49.0822 1594.28 47.1482 1591.15 45.7892C1588.11 44.3256 1584.82 43.5938 1581.27 43.5938C1577.61 43.5938 1574.26 44.2733 1571.23 45.6323C1568.2 46.9914 1565.53 48.9254 1563.23 51.4344C1561.04 53.8388 1559.31 56.8182 1558.06 60.3726C1556.8 63.8225 1556.18 67.6382 1556.18 71.8199V74.3288C1556.18 83.2148 1558.48 90.1668 1563.08 95.1847C1567.78 100.098 1573.84 102.555 1581.27 102.555Z" fill="black"/>
<path d="M1477.25 103.182C1477.25 100.15 1478.3 97.5889 1480.39 95.4981C1482.58 93.3027 1485.2 92.2051 1488.23 92.2051C1491.26 92.2051 1493.82 93.3027 1495.91 95.4981C1498.11 97.5889 1499.21 100.15 1499.21 103.182C1499.21 106.214 1498.11 108.827 1495.91 111.022C1493.82 113.113 1491.26 114.159 1488.23 114.159C1485.2 114.159 1482.58 113.113 1480.39 111.022C1478.3 108.827 1477.25 106.214 1477.25 103.182Z" fill="black"/>
<path d="M1432.67 111.964H1420.44V56.1387C1420.44 52.4798 1419.6 49.5004 1417.93 47.2005C1416.26 44.796 1413.59 43.5938 1409.93 43.5938C1406.48 43.5938 1403.66 44.9006 1401.47 47.5141C1399.37 50.0231 1398.33 53.9433 1398.33 59.2749V111.964H1386.1V55.5115C1386.1 52.0616 1385.16 49.239 1383.27 47.0436C1381.39 44.7437 1378.88 43.5938 1375.75 43.5938C1371.98 43.5938 1369.06 44.9528 1366.97 47.6709C1364.98 50.389 1363.99 53.9434 1363.99 58.3341V111.964H1351.76V34.1851H1363.99V42.6529H1365.87C1367.23 38.994 1369.21 36.3282 1371.83 34.6555C1374.44 32.8783 1377.53 31.9897 1381.08 31.9897C1384.84 31.9897 1387.93 32.9829 1390.33 34.9692C1392.84 36.9554 1394.57 39.5167 1395.51 42.6529H1397.39C1400.94 35.5441 1406.59 31.9897 1414.32 31.9897C1420.18 31.9897 1424.67 33.8715 1427.81 37.635C1431.05 41.2939 1432.67 46.1028 1432.67 52.0616V111.964Z" fill="black"/>
<path d="M1335.24 74.0152C1335.24 80.4968 1334.14 86.2465 1331.95 91.2645C1329.86 96.1779 1327.04 100.36 1323.48 103.809C1319.93 107.155 1315.75 109.716 1310.94 111.493C1306.23 113.27 1301.32 114.159 1296.2 114.159C1290.97 114.159 1286 113.27 1281.3 111.493C1276.59 109.716 1272.47 107.155 1268.91 103.809C1265.36 100.36 1262.48 96.1779 1260.29 91.2645C1258.2 86.2465 1257.15 80.4968 1257.15 74.0152V72.1335C1257.15 65.7565 1258.2 60.1113 1260.29 55.1978C1262.48 50.1799 1265.36 45.946 1268.91 42.4961C1272.57 39.0463 1276.75 36.4327 1281.46 34.6555C1286.16 32.8783 1291.07 31.9897 1296.2 31.9897C1301.32 31.9897 1306.23 32.8783 1310.94 34.6555C1315.64 36.4327 1319.77 39.0463 1323.32 42.4961C1326.98 45.946 1329.86 50.1799 1331.95 55.1978C1334.14 60.1113 1335.24 65.7565 1335.24 72.1335V74.0152ZM1296.2 102.555C1299.96 102.555 1303.41 101.928 1306.55 100.673C1309.79 99.3141 1312.61 97.3801 1315.01 94.8711C1317.42 92.3622 1319.3 89.3827 1320.66 85.9329C1322.02 82.3785 1322.7 78.4059 1322.7 74.0152V72.1335C1322.7 67.9518 1322.02 64.1361 1320.66 60.6862C1319.3 57.1318 1317.42 54.1002 1315.01 51.5912C1312.61 49.0822 1309.79 47.1482 1306.55 45.7892C1303.31 44.3256 1299.86 43.5938 1296.2 43.5938C1292.54 43.5938 1289.09 44.3256 1285.85 45.7892C1282.61 47.1482 1279.78 49.0822 1277.38 51.5912C1274.97 54.1002 1273.09 57.1318 1271.73 60.6862C1270.37 64.1361 1269.7 67.9518 1269.7 72.1335V74.0152C1269.7 78.4059 1270.37 82.3785 1271.73 85.9329C1273.09 89.3827 1274.97 92.3622 1277.38 94.8711C1279.78 97.3801 1282.55 99.3141 1285.69 100.673C1288.93 101.928 1292.43 102.555 1296.2 102.555Z" fill="black"/>
<path d="M1238.6 84.3648C1237.76 88.6509 1236.3 92.6235 1234.21 96.2824C1232.22 99.9414 1229.66 103.13 1226.52 105.848C1223.39 108.461 1219.73 110.5 1215.55 111.964C1211.37 113.427 1206.71 114.159 1201.59 114.159C1196.16 114.159 1190.98 113.27 1186.07 111.493C1181.26 109.716 1177.02 107.155 1173.37 103.809C1169.71 100.36 1166.78 96.1779 1164.58 91.2645C1162.49 86.351 1161.45 80.7058 1161.45 74.3288V72.4471C1161.45 66.1746 1162.49 60.5294 1164.58 55.5115C1166.78 50.4935 1169.71 46.2596 1173.37 42.8097C1177.02 39.3599 1181.26 36.6941 1186.07 34.8124C1190.98 32.9306 1196.16 31.9897 1201.59 31.9897C1206.51 31.9897 1211.05 32.7215 1215.23 34.1851C1219.42 35.6487 1223.08 37.7395 1226.21 40.4576C1229.45 43.0711 1232.07 46.2073 1234.05 49.8663C1236.14 53.5252 1237.55 57.4977 1238.29 61.7839L1226.05 64.6065C1225.74 61.8885 1224.96 59.2749 1223.7 56.766C1222.55 54.1524 1220.93 51.9048 1218.84 50.0231C1216.85 48.0368 1214.4 46.4687 1211.47 45.3187C1208.54 44.1688 1205.15 43.5938 1201.28 43.5938C1197.51 43.5938 1193.96 44.3256 1190.62 45.7892C1187.37 47.1482 1184.5 49.1345 1181.99 51.748C1179.48 54.257 1177.5 57.2887 1176.03 60.8431C1174.67 64.3974 1173.99 68.2655 1173.99 72.4471V74.3288C1173.99 78.7196 1174.67 82.6921 1176.03 86.2465C1177.5 89.6963 1179.48 92.6235 1181.99 95.0279C1184.5 97.4324 1187.43 99.3141 1190.77 100.673C1194.12 101.928 1197.72 102.555 1201.59 102.555C1205.46 102.555 1208.81 101.98 1211.63 100.83C1214.56 99.5755 1217.01 98.0073 1219 96.1256C1221.09 94.1393 1222.71 91.8917 1223.86 89.3827C1225.11 86.8737 1225.95 84.2602 1226.37 81.5422L1238.6 84.3648Z" fill="black"/>
<path d="M1093.19 103.182C1093.19 100.15 1094.23 97.5889 1096.32 95.4981C1098.52 93.3027 1101.13 92.2051 1104.16 92.2051C1107.2 92.2051 1109.76 93.3027 1111.85 95.4981C1114.04 97.5889 1115.14 100.15 1115.14 103.182C1115.14 106.214 1114.04 108.827 1111.85 111.022C1109.76 113.113 1107.2 114.159 1104.16 114.159C1101.13 114.159 1098.52 113.113 1096.32 111.022C1094.23 108.827 1093.19 106.214 1093.19 103.182Z" fill="black"/>
<path d="M1030.26 98.7914H1028.38C1025.87 104.018 1022.36 107.886 1017.87 110.395C1013.48 112.904 1008.83 114.159 1003.91 114.159C998.791 114.159 994.034 113.323 989.644 111.65C985.253 109.873 981.385 107.312 978.04 103.966C974.799 100.516 972.238 96.3347 970.356 91.4213C968.474 86.5079 967.533 80.8104 967.533 74.3288V71.8199C967.533 65.4429 968.474 59.7976 970.356 54.8842C972.238 49.9708 974.799 45.8414 978.04 42.4961C981.385 39.0463 985.253 36.4327 989.644 34.6555C994.034 32.8783 998.686 31.9897 1003.6 31.9897C1008.93 31.9897 1013.74 33.192 1018.03 35.5964C1022.42 37.8963 1025.87 41.503 1028.38 46.4164H1030.26V34.1851H1042.49V95.9688C1042.49 99.105 1043.9 100.673 1046.72 100.673H1050.64V111.964H1042.33C1038.78 111.964 1035.85 110.814 1033.55 108.514C1031.36 106.214 1030.26 103.287 1030.26 99.7323V98.7914ZM1005.17 102.555C1008.83 102.555 1012.17 101.875 1015.2 100.516C1018.34 99.1573 1021.01 97.2233 1023.2 94.7143C1025.4 92.2053 1027.12 89.2259 1028.38 85.7761C1029.63 82.2217 1030.26 78.3014 1030.26 74.0152V72.1335C1030.26 67.9518 1029.63 64.1361 1028.38 60.6862C1027.12 57.1318 1025.34 54.1002 1023.04 51.5912C1020.85 49.0822 1018.18 47.1482 1015.05 45.7892C1012.02 44.3256 1008.72 43.5938 1005.17 43.5938C1001.51 43.5938 998.164 44.2733 995.132 45.6323C992.1 46.9914 989.435 48.9254 987.135 51.4344C984.939 53.8388 983.214 56.8182 981.96 60.3726C980.705 63.8225 980.078 67.6382 980.078 71.8199V74.3288C980.078 83.2148 982.378 90.1668 986.978 95.1847C991.682 100.098 997.746 102.555 1005.17 102.555Z" fill="black"/>
<path d="M952.589 111.964H940.358V56.1387C940.358 52.4798 939.521 49.5004 937.849 47.2005C936.176 44.796 933.51 43.5938 929.851 43.5938C926.402 43.5938 923.579 44.9006 921.383 47.5141C919.293 50.0231 918.247 53.9433 918.247 59.2749V111.964H906.016V55.5115C906.016 52.0616 905.075 49.239 903.193 47.0436C901.312 44.7437 898.803 43.5938 895.666 43.5938C891.903 43.5938 888.976 44.9528 886.885 47.6709C884.899 50.389 883.906 53.9434 883.906 58.3341V111.964H871.674V34.1851H883.906V42.6529H885.787C887.146 38.994 889.133 36.3282 891.746 34.6555C894.36 32.8783 897.444 31.9897 900.998 31.9897C904.761 31.9897 907.845 32.9829 910.25 34.9692C912.759 36.9554 914.484 39.5167 915.425 42.6529H917.306C920.861 35.5441 926.506 31.9897 934.242 31.9897C940.096 31.9897 944.592 33.8715 947.728 37.635C950.969 41.2939 952.589 46.1028 952.589 52.0616V111.964Z" fill="black"/>
<path d="M805.922 10.9768C805.922 7.94511 806.968 5.38386 809.059 3.29304C811.254 1.09768 813.868 0 816.899 0C819.931 0 822.492 1.09768 824.583 3.29304C826.778 5.38386 827.876 7.94511 827.876 10.9768C827.876 14.0085 826.778 16.622 824.583 18.8174C822.492 20.9082 819.931 21.9536 816.899 21.9536C813.868 21.9536 811.254 20.9082 809.059 18.8174C806.968 16.622 805.922 14.0085 805.922 10.9768ZM783.655 100.673H810.94V45.4753H786.478V34.1849H823.172V100.673H848.575V111.963H783.655V100.673Z" fill="black"/>
<path d="M683.091 34.1848H707.554V2.19531H719.785V34.1848H749.893V45.4753H719.785V95.9685C719.785 99.1048 721.197 100.673 724.019 100.673H746.13V111.963H719.628C716.074 111.963 713.147 110.813 710.847 108.513C708.652 106.214 707.554 103.286 707.554 99.732V45.4753H683.091V34.1848Z" fill="black"/>
<path d="M646.193 98.7914H644.311C641.802 104.018 638.3 107.886 633.805 110.395C629.414 112.904 624.762 114.159 619.849 114.159C614.726 114.159 609.969 113.323 605.579 111.65C601.188 109.873 597.32 107.312 593.975 103.966C590.734 100.516 588.173 96.3347 586.291 91.4213C584.409 86.5079 583.468 80.8104 583.468 74.3288V71.8199C583.468 65.4429 584.409 59.7976 586.291 54.8842C588.173 49.9708 590.734 45.8414 593.975 42.4961C597.32 39.0463 601.188 36.4327 605.579 34.6555C609.969 32.8783 614.621 31.9897 619.535 31.9897C624.866 31.9897 629.675 33.192 633.962 35.5964C638.352 37.8963 641.802 41.503 644.311 46.4164H646.193V34.1851H658.424V95.9688C658.424 99.105 659.835 100.673 662.658 100.673H666.578V111.964H658.267C654.713 111.964 651.786 110.814 649.486 108.514C647.29 106.214 646.193 103.287 646.193 99.7323V98.7914ZM621.103 102.555C624.762 102.555 628.107 101.875 631.139 100.516C634.275 99.1573 636.941 97.2233 639.136 94.7143C641.332 92.2053 643.057 89.2259 644.311 85.7761C645.566 82.2217 646.193 78.3014 646.193 74.0152V72.1335C646.193 67.9518 645.566 64.1361 644.311 60.6862C643.057 57.1318 641.279 54.1002 638.98 51.5912C636.784 49.0822 634.118 47.1482 630.982 45.7892C627.95 44.3256 624.657 43.5938 621.103 43.5938C617.444 43.5938 614.099 44.2733 611.067 45.6323C608.035 46.9914 605.37 48.9254 603.07 51.4344C600.874 53.8388 599.149 56.8182 597.895 60.3726C596.64 63.8225 596.013 67.6382 596.013 71.8199V74.3288C596.013 83.2148 598.313 90.1668 602.913 95.1847C607.617 100.098 613.681 102.555 621.103 102.555Z" fill="black"/>
<path d="M492.94 34.1848H516.933V14.4266C516.933 10.8722 518.03 7.94507 520.226 5.64517C522.525 3.34527 525.453 2.19531 529.007 2.19531H559.742V13.4857H533.398C530.575 13.4857 529.164 15.0539 529.164 18.1901V34.1848H561.624V45.4753H529.164V111.963H516.933V45.4753H492.94V34.1848Z" fill="black"/>
<path d="M469.841 111.963C466.496 111.963 463.778 111.179 461.687 109.611C459.596 107.939 458.289 105.586 457.767 102.555H455.885C454.944 105.9 453.01 108.67 450.083 110.866C447.156 113.061 443.026 114.159 437.695 114.159C433.409 114.159 429.488 113.322 425.934 111.65C422.38 109.873 419.243 107.311 416.525 103.966C413.912 100.621 411.873 96.4913 410.41 91.5779C408.946 86.5599 408.214 80.8101 408.214 74.3286V71.8196C408.214 65.129 408.946 59.327 410.41 54.4136C411.978 49.3956 414.069 45.2662 416.682 42.0255C419.4 38.6801 422.536 36.1712 426.091 34.4985C429.645 32.8259 433.409 31.9895 437.381 31.9895C442.295 31.9895 446.215 32.9827 449.142 34.9689C452.174 36.9552 454.421 39.5165 455.885 42.6527H457.767V30.1078C457.767 23.8353 456.251 19.131 453.219 15.9948C450.292 12.8585 445.535 11.2904 438.949 11.2904H420.446C413.546 11.2904 408.528 13.0154 405.392 16.4652C402.255 19.9151 400.687 25.0898 400.687 31.9895V111.336C400.687 118.236 402.255 123.411 405.392 126.86C408.528 130.31 413.546 132.035 420.446 132.035H478.152V143.326H419.505C409.678 143.326 402.046 140.764 396.61 135.642C391.174 130.624 388.456 122.836 388.456 112.277V31.0487C388.456 20.5946 391.226 12.8063 396.767 7.68377C402.308 2.56126 409.887 0 419.505 0H440.204C449.717 0 457.035 2.35218 462.157 7.05652C467.384 11.7609 469.998 19.0265 469.998 28.8533V95.9686C469.998 99.1048 471.409 100.673 474.232 100.673H478.152V111.963H469.841ZM438.949 102.555C442.504 102.555 445.483 101.823 447.888 100.359C450.292 98.8957 452.226 96.9095 453.69 94.4005C455.153 91.8915 456.199 88.9121 456.826 85.4622C457.453 81.9078 457.767 78.0921 457.767 74.015V72.1332C457.767 68.2652 457.453 64.6063 456.826 61.1565C456.303 57.6021 455.31 54.5704 453.846 52.0614C452.487 49.4479 450.606 47.4093 448.201 45.9457C445.797 44.3776 442.817 43.5936 439.263 43.5936C433.513 43.5936 428.966 45.998 425.62 50.8069C422.38 55.5112 420.759 62.5155 420.759 71.8196V74.3286C420.759 83.5282 422.327 90.5324 425.464 95.3413C428.704 100.15 433.2 102.555 438.949 102.555Z" fill="black"/>
<path d="M358.144 98.7914H356.262C353.753 104.018 350.251 107.886 345.756 110.395C341.365 112.904 336.713 114.159 331.8 114.159C326.677 114.159 321.921 113.323 317.53 111.65C313.139 109.873 309.271 107.312 305.926 103.966C302.685 100.516 300.124 96.3347 298.242 91.4213C296.36 86.5079 295.419 80.8104 295.419 74.3288V71.8199C295.419 65.4429 296.36 59.7976 298.242 54.8842C300.124 49.9708 302.685 45.8414 305.926 42.4961C309.271 39.0463 313.139 36.4327 317.53 34.6555C321.921 32.8783 326.573 31.9897 331.486 31.9897C336.818 31.9897 341.627 33.192 345.913 35.5964C350.303 37.8963 353.753 41.503 356.262 46.4164H358.144V34.1851H370.375V95.9688C370.375 99.105 371.787 100.673 374.609 100.673H378.529V111.964H370.218C366.664 111.964 363.737 110.814 361.437 108.514C359.242 106.214 358.144 103.287 358.144 99.7323V98.7914ZM333.054 102.555C336.713 102.555 340.058 101.875 343.09 100.516C346.226 99.1573 348.892 97.2233 351.087 94.7143C353.283 92.2053 355.008 89.2259 356.262 85.7761C357.517 82.2217 358.144 78.3014 358.144 74.0152V72.1335C358.144 67.9518 357.517 64.1361 356.262 60.6862C355.008 57.1318 353.231 54.1002 350.931 51.5912C348.735 49.0822 346.07 47.1482 342.933 45.7892C339.902 44.3256 336.609 43.5938 333.054 43.5938C329.395 43.5938 326.05 44.2733 323.018 45.6323C319.987 46.9914 317.321 48.9254 315.021 51.4344C312.825 53.8388 311.101 56.8182 309.846 60.3726C308.592 63.8225 307.964 67.6382 307.964 71.8199V74.3288C307.964 83.2148 310.264 90.1668 314.864 95.1847C319.568 100.098 325.632 102.555 333.054 102.555Z" fill="black"/>
<path d="M205.675 100.673H233.901V13.4857H206.616V2.19531H246.133V100.673H274.359V111.963H205.675V100.673Z" fill="black"/>
<path d="M183.047 74.0152C183.047 80.4968 181.949 86.2465 179.754 91.2645C177.663 96.1779 174.84 100.36 171.286 103.809C167.731 107.155 163.55 109.716 158.741 111.493C154.037 113.27 149.123 114.159 144.001 114.159C138.774 114.159 133.808 113.27 129.104 111.493C124.399 109.716 120.27 107.155 116.715 103.809C113.161 100.36 110.286 96.1779 108.091 91.2645C106 86.2465 104.955 80.4968 104.955 74.0152V72.1335C104.955 65.7565 106 60.1113 108.091 55.1978C110.286 50.1799 113.161 45.946 116.715 42.4961C120.374 39.0463 124.556 36.4327 129.26 34.6555C133.965 32.8783 138.878 31.9897 144.001 31.9897C149.123 31.9897 154.037 32.8783 158.741 34.6555C163.445 36.4327 167.575 39.0463 171.129 42.4961C174.788 45.946 177.663 50.1799 179.754 55.1978C181.949 60.1113 183.047 65.7565 183.047 72.1335V74.0152ZM144.001 102.555C147.764 102.555 151.214 101.928 154.35 100.673C157.591 99.3141 160.414 97.3801 162.818 94.8711C165.222 92.3622 167.104 89.3827 168.463 85.9329C169.822 82.3785 170.502 78.4059 170.502 74.0152V72.1335C170.502 67.9518 169.822 64.1361 168.463 60.6862C167.104 57.1318 165.222 54.1002 162.818 51.5912C160.414 49.0822 157.591 47.1482 154.35 45.7892C151.109 44.3256 147.66 43.5938 144.001 43.5938C140.342 43.5938 136.892 44.3256 133.651 45.7892C130.41 47.1482 127.588 49.0822 125.183 51.5912C122.779 54.1002 120.897 57.1318 119.538 60.6862C118.179 64.1361 117.5 67.9518 117.5 72.1335V74.0152C117.5 78.4059 118.179 82.3785 119.538 85.9329C120.897 89.3827 122.779 92.3622 125.183 94.8711C127.588 97.3801 130.358 99.3141 133.494 100.673C136.735 101.928 140.237 102.555 144.001 102.555Z" fill="black"/>
<path d="M25.8739 111.963H13.6426V2.19531H25.8739V48.2979H27.7556C30.16 43.2799 33.5054 39.3074 37.7915 36.3802C42.1823 33.4531 47.5138 31.9895 53.7863 31.9895C62.2541 31.9895 69.1015 34.8121 74.3286 40.4573C79.6602 45.998 82.326 54.3612 82.326 65.5471V111.963H70.0947V68.0561C70.0947 59.9019 68.2652 53.7863 64.6063 49.7092C60.9473 45.6321 55.9817 43.5935 49.7092 43.5935C42.2868 43.5935 36.4325 46.1548 32.1463 51.2773C27.9647 56.2952 25.8739 63.0381 25.8739 71.506V111.963Z" fill="black"/>
</svg>
