<svg width="694" height="234" viewBox="0 0 694 234" fill="none" xmlns="http://www.w3.org/2000/svg">
<path d="M-0.000191161 70.6381H49.5759V29.8107C49.5759 22.4661 51.8441 16.4176 56.3805 11.6652C61.1329 6.91277 67.1814 4.53657 74.526 4.53657H138.035V27.8665H83.5988C77.7663 27.8665 74.85 31.1068 74.85 37.5873V70.6381H141.924V93.968H74.85V231.355H49.5759V93.968H-0.000191161V70.6381ZM208.855 222.812C201.683 219.647 195.987 215.323 191.768 209.838C187.76 204.142 184.912 197.919 183.224 191.169C181.748 184.418 181.326 177.456 181.959 170.284C182.592 162.901 184.068 155.834 186.389 149.083C188.287 143.809 190.397 138.324 192.717 132.628C195.249 126.933 198.202 121.659 201.578 116.807C204.953 111.955 208.961 107.841 213.602 104.466C218.243 100.88 223.728 98.5593 230.056 97.5045C236.596 96.4497 243.136 96.1333 249.675 96.5552C256.426 96.7661 263.071 97.399 269.611 98.4538C272.564 98.8757 275.412 99.614 278.154 100.669C280.897 101.513 283.639 102.462 286.381 103.517C286.592 100.352 287.964 97.7154 290.495 95.6059C293.237 93.4963 296.085 92.4416 299.039 92.4416C302.625 92.4416 305.473 93.7073 307.582 96.2388C309.903 98.5593 311.274 101.407 311.696 104.782C312.751 114.486 313.173 124.19 312.962 133.894C312.962 143.598 312.645 153.302 312.012 163.006C311.591 172.71 311.169 182.414 310.747 192.118C310.536 201.822 310.641 211.526 311.063 221.23C311.274 225.238 310.008 228.297 307.266 230.406C304.735 232.305 301.887 233.254 298.722 233.254C295.558 233.254 292.605 232.305 289.862 230.406C287.331 228.297 285.96 225.238 285.749 221.23C273.724 226.293 260.961 229.246 247.46 230.09C233.959 230.723 221.091 228.297 208.855 222.812ZM211.07 154.146C209.805 157.943 208.644 162.268 207.59 167.12C206.535 171.972 206.219 176.613 206.64 181.043C207.062 185.473 208.434 189.586 210.754 193.384C213.075 196.97 216.872 199.501 222.146 200.978C232.904 204.353 243.663 205.303 254.422 203.826C265.391 202.349 275.623 198.552 285.116 192.434C285.96 182.097 286.592 172.077 287.014 162.373C287.647 152.669 287.858 142.86 287.647 132.945C284.061 130.624 280.369 128.62 276.572 126.933C272.986 125.034 268.978 123.768 264.548 123.136C260.118 122.503 255.371 122.081 250.308 121.87C245.456 121.448 240.71 121.448 236.069 121.87C235.647 121.87 234.486 122.186 232.588 122.819C230.9 123.241 229.951 123.557 229.74 123.768C227.63 124.823 225.732 126.511 224.044 128.831C221.302 132.628 218.876 136.742 216.766 141.172C214.657 145.391 212.758 149.716 211.07 154.146ZM284.483 22.8264C287.225 20.7168 290.179 19.5566 293.343 19.3456C296.507 18.9237 299.461 20.084 302.203 22.8264C304.524 25.1469 305.789 28.2057 306 32.0029C306.211 35.5892 304.945 38.5425 302.203 40.863C287.014 52.4656 271.193 62.4859 254.738 70.9241C251.152 72.8227 247.777 73.1392 244.612 71.8734C241.448 70.3968 239.022 68.2872 237.334 65.5448C235.858 62.8024 235.33 59.849 235.752 56.6847C236.174 53.5204 238.178 50.9889 241.764 49.0903C249.359 45.2931 256.637 41.285 263.598 37.0659C270.771 32.8468 277.732 28.1003 284.483 22.8264ZM351.782 70.6381H402.33V4.53657H427.604V70.6381H489.817V93.968H427.604V198.305C427.604 204.785 430.52 208.026 436.353 208.026H482.041V231.355H427.28C419.935 231.355 413.887 228.979 409.134 224.227C404.598 219.474 402.33 213.426 402.33 206.081V93.968H351.782V70.6381ZM605.594 22.6821C605.594 16.4176 607.754 11.1251 612.074 6.80477C616.61 2.26838 622.011 0.0001918 628.275 0.0001918C634.54 0.0001918 639.832 2.26838 644.153 6.80477C648.689 11.1251 650.957 16.4176 650.957 22.6821C650.957 28.9466 648.689 34.3471 644.153 38.8834C639.832 43.2038 634.54 45.364 628.275 45.364C622.011 45.364 616.61 43.2038 612.074 38.8834C607.754 34.3471 605.594 28.9466 605.594 22.6821ZM559.582 208.026H615.962V93.968H565.414V70.6381H641.237V208.026H693.729V231.355H559.582V208.026Z" fill="black"/>
</svg>
