<svg width="1351" height="266" viewBox="0 0 1351 266" fill="none" xmlns="http://www.w3.org/2000/svg">
<path d="M0.000372648 79.0532H55.4825V33.362C55.4825 25.1425 58.0209 18.3734 63.0977 13.0548C68.4163 7.73627 75.1854 5.077 83.4049 5.077H154.48V31.1863H93.5585C87.0312 31.1863 83.7676 34.8125 83.7676 42.0651V79.0532H158.832V105.162H83.7676V258.917H55.4825V105.162H0.000372648V79.0532ZM354.399 228.456H350.047C344.245 240.544 336.147 249.489 325.751 255.291C315.598 261.093 304.84 263.994 293.477 263.994C281.631 263.994 270.632 262.06 260.478 258.192C250.325 254.082 241.38 248.159 233.644 240.423C226.149 232.445 220.226 222.775 215.875 211.413C211.523 200.05 209.348 186.875 209.348 171.886V166.084C209.348 151.337 211.523 138.283 215.875 126.92C220.226 115.558 226.149 106.009 233.644 98.2725C241.38 90.2947 250.325 84.2509 260.478 80.1411C270.632 76.0313 281.39 73.9764 292.752 73.9764C305.081 73.9764 316.202 76.7566 326.114 82.3169C336.268 87.6354 344.245 95.9759 350.047 107.338H354.399V79.0532H382.684V221.929C382.684 229.181 385.948 232.808 392.475 232.808H401.541V258.917H382.321C374.102 258.917 367.333 256.258 362.014 250.939C356.937 245.621 354.399 238.852 354.399 230.632V228.456ZM296.378 237.159C304.84 237.159 312.576 235.588 319.587 232.445C326.839 229.302 333.004 224.83 338.081 219.028C343.157 213.226 347.146 206.336 350.047 198.358C352.948 190.138 354.399 181.073 354.399 171.161V166.809C354.399 157.139 352.948 148.315 350.047 140.337C347.146 132.118 343.037 125.107 337.718 119.305C332.641 113.503 326.477 109.031 319.224 105.888C312.213 102.503 304.598 100.811 296.378 100.811C287.917 100.811 280.181 102.382 273.17 105.525C266.159 108.668 259.995 113.14 254.676 118.942C249.599 124.503 245.61 131.393 242.709 139.612C239.808 147.59 238.358 156.414 238.358 166.084V171.886C238.358 192.435 243.676 208.512 254.313 220.116C265.192 231.478 279.214 237.159 296.378 237.159ZM335.18 9.42855L304.719 52.2187H278.61L302.543 9.42855H335.18ZM439.727 79.0532H496.297V5.077H524.582V79.0532H594.207V105.162H524.582V221.929C524.582 229.181 527.846 232.808 534.373 232.808H585.504V258.917H524.22C516 258.917 509.231 256.258 503.912 250.939C498.836 245.621 496.297 238.852 496.297 230.632V105.162H439.727V79.0532ZM723.776 25.3842C723.776 18.3734 726.193 12.4504 731.028 7.61541C736.105 2.5386 742.149 0.000197827 749.16 0.000197827C756.171 0.000197827 762.093 2.5386 766.929 7.61541C772.005 12.4504 774.544 18.3734 774.544 25.3842C774.544 32.395 772.005 38.4388 766.929 43.5156C762.093 48.3507 756.171 50.7682 749.16 50.7682C742.149 50.7682 736.105 48.3507 731.028 43.5156C726.193 38.4388 723.776 32.395 723.776 25.3842ZM672.282 232.808H735.38V105.162H678.81V79.0532H763.665V232.808H822.411V258.917H672.282V232.808ZM907.984 263.835C904.453 265.097 900.544 264.718 896.256 262.7C892.22 260.683 889.95 257.656 889.446 253.62C885.914 231.424 883.644 209.48 882.635 187.788C881.879 165.845 881.5 143.774 881.5 121.578C881.5 117.795 882.509 114.768 884.527 112.498C886.545 110.228 888.941 108.715 891.716 107.958C894.49 107.201 897.391 107.075 900.418 107.58C903.444 108.084 905.967 109.345 907.984 111.363C913.786 106.571 919.965 102.409 926.523 98.8777C933.081 95.3465 939.639 93.0765 946.197 92.0676C953.007 90.8064 959.691 91.1848 966.249 93.2026C972.807 94.9682 978.987 98.8777 984.788 104.931C989.58 109.976 993.742 115.399 997.273 121.2C1000.8 126.749 1003.96 132.676 1006.73 138.982C1010.52 129.397 1015.81 120.569 1022.62 112.498C1029.43 104.427 1038.13 99.0039 1048.73 96.2293C1056.55 94.2115 1062.73 94.716 1067.27 97.7427C1071.81 100.517 1076.1 104.931 1080.13 110.985C1084.42 117.29 1088.33 123.722 1091.86 130.28C1095.64 136.838 1099.17 143.522 1102.45 150.332C1105.73 157.143 1108.88 163.953 1111.91 170.763C1114.94 177.573 1117.97 184.257 1120.99 190.815C1124.52 198.13 1127.55 205.444 1130.07 212.759C1132.85 219.822 1134.61 227.388 1135.37 235.46C1135.87 239.748 1134.36 243.405 1130.83 246.432C1127.55 249.206 1124.02 250.593 1120.24 250.593C1115.95 250.593 1112.42 249.206 1109.64 246.432C1107.12 243.405 1105.61 239.748 1105.1 235.46C1104.6 229.406 1102.96 223.605 1100.18 218.056C1097.66 212.255 1095.14 206.579 1092.62 201.03C1089.84 195.229 1087.07 189.302 1084.29 183.248C1081.77 177.195 1079.12 171.267 1076.35 165.466C1073.57 159.665 1070.55 153.864 1067.27 148.062C1064.24 142.261 1060.96 136.586 1057.43 131.037C1056.93 130.28 1056.42 129.524 1055.92 128.767C1055.41 128.01 1054.91 127.253 1054.4 126.497C1049.36 129.271 1045.7 131.92 1043.43 134.442C1041.16 136.964 1039.02 140.369 1037 144.657C1035.23 148.441 1033.72 152.476 1032.46 156.764C1031.45 160.8 1030.57 164.962 1029.81 169.25C1028.3 177.321 1027.16 185.771 1026.41 194.599C1025.9 201.157 1025.9 207.462 1026.41 213.516C1027.16 219.569 1026.91 225.875 1025.65 232.433C1024.89 236.469 1022.5 239.495 1018.46 241.513C1014.68 243.531 1010.89 244.035 1007.11 243.027C1003.58 242.018 1000.93 240.252 999.165 237.73C997.652 234.955 996.643 231.802 996.138 228.271C995.13 220.2 993.994 211.876 992.733 203.301C991.472 194.725 989.833 186.275 987.815 177.952C985.797 169.376 983.149 161.178 979.87 153.359C976.843 145.288 972.807 137.847 967.763 131.037C964.231 126.497 960.574 123.47 956.791 121.957C953.26 120.443 948.846 121.074 943.549 123.848C937.747 126.875 932.072 130.532 926.523 134.82C920.974 139.108 916.056 143.901 911.768 149.197C912.02 165.34 912.525 181.483 913.281 197.625C914.29 213.516 916.056 229.406 918.578 245.297C919.083 249.585 918.452 253.494 916.686 257.025C915.173 260.304 912.272 262.574 907.984 263.835ZM1303.52 228.456H1299.17C1293.36 240.544 1285.27 249.489 1274.87 255.291C1264.72 261.093 1253.96 263.994 1242.6 263.994C1230.75 263.994 1219.75 262.06 1209.6 258.192C1199.44 254.082 1190.5 248.159 1182.76 240.423C1175.27 232.445 1169.34 222.775 1164.99 211.413C1160.64 200.05 1158.47 186.875 1158.47 171.886V166.084C1158.47 151.337 1160.64 138.283 1164.99 126.92C1169.34 115.558 1175.27 106.009 1182.76 98.2725C1190.5 90.2947 1199.44 84.2509 1209.6 80.1411C1219.75 76.0313 1230.51 73.9764 1241.87 73.9764C1254.2 73.9764 1265.32 76.7566 1275.23 82.3169C1285.39 87.6354 1293.36 95.9759 1299.17 107.338H1303.52V79.0532H1331.8V221.929C1331.8 229.181 1335.07 232.808 1341.59 232.808H1350.66V258.917H1331.44C1323.22 258.917 1316.45 256.258 1311.13 250.939C1306.06 245.621 1303.52 238.852 1303.52 230.632V228.456ZM1245.5 237.159C1253.96 237.159 1261.69 235.588 1268.7 232.445C1275.96 229.302 1282.12 224.83 1287.2 219.028C1292.28 213.226 1296.26 206.336 1299.17 198.358C1302.07 190.138 1303.52 181.073 1303.52 171.161V166.809C1303.52 157.139 1302.07 148.315 1299.17 140.337C1296.26 132.118 1292.15 125.107 1286.84 119.305C1281.76 113.503 1275.59 109.031 1268.34 105.888C1261.33 102.503 1253.72 100.811 1245.5 100.811C1237.04 100.811 1229.3 102.382 1222.29 105.525C1215.28 108.668 1209.11 113.14 1203.79 118.942C1198.72 124.503 1194.73 131.393 1191.83 139.612C1188.93 147.59 1187.48 156.414 1187.48 166.084V171.886C1187.48 192.435 1192.79 208.512 1203.43 220.116C1214.31 231.478 1228.33 237.159 1245.5 237.159Z" fill="black"/>
</svg>
